<svg width="2695" height="1516" viewBox="0 0 2695 1516" fill="none" xmlns="http://www.w3.org/2000/svg">
<rect width="2695" height="1516" fill="#F6F6F6"/>
<path d="M695.493 754.209V1002.88H480.943V758.099C516.879 791.192 695.493 754.209 695.493 754.209Z" fill="#C78982"/>
<path d="M479.947 793.779V709.891H694.498V889.624C659.63 889.624 635.4 889.624 606.771 879.884C560.495 864.42 513.449 831.9 479.947 793.779Z" fill="#99644D"/>
<path d="M374.709 514.316C374.709 508.671 374.963 503.111 375.389 497.636C376.048 489.882 377.143 482.174 378.669 474.543C378.669 473.694 378.669 472.803 378.669 471.953C378.669 360.908 457.621 269.347 559.659 256.103C568.13 254.985 576.665 254.419 585.21 254.404C699.254 254.404 791.75 352.037 791.75 471.953C791.75 472.758 791.75 473.566 791.75 474.374C794.096 486.266 795.407 498.337 795.669 510.453C795.669 511.77 795.669 513.043 795.669 514.358C795.669 514.358 796.35 522.85 795.967 537.834C795.711 547.555 795.156 557.189 794.135 566.826C793.878 569.416 793.624 571.961 793.198 574.51C791.95 584.865 790.273 595.125 788.172 605.284C784.512 623.085 779.546 640.59 773.311 657.665C762.295 688.069 747.472 716.965 729.193 743.666L728.34 744.981C725.232 749.44 722.081 753.896 718.717 758.227C706.825 774.09 693.711 789.008 679.494 802.84L678.344 803.901C620.768 867.574 553.439 870.331 492.075 803.901C491.725 803.527 491.355 803.173 490.968 802.84C470.001 782.353 451.431 759.569 435.606 734.921C425.685 719.594 416.874 703.578 409.244 686.998C399.823 666.642 392.243 645.49 386.59 623.791C380.76 601.748 377.027 579.207 375.431 556.467C374.921 550.27 374.622 543.987 374.452 537.748C374.452 535.498 374.452 533.503 374.452 531.339C374.196 520.513 374.709 514.316 374.709 514.316Z" fill="#C78982"/>
<path d="M356.345 873.248C379.908 882.668 414.886 889.99 481.705 889.99C481.705 889.99 482.552 794.007 480.212 791.461C477.872 788.915 474.668 784.235 472.414 781.689C470.16 779.144 467.864 776.47 465.652 773.882C463.44 771.294 461.613 769.044 459.655 766.543C459.23 766.075 458.89 765.609 458.505 765.142C456.944 763.403 455.524 761.544 454.254 759.585C432.222 719.617 425.119 706.76 415.548 647.022C406.574 590.933 412.572 539.044 463.526 518.254C534.086 489.189 584.826 422.663 607.283 349.9C607.283 424.487 659.981 488.554 711.019 519.909C761.078 550.668 752.104 609.684 748.149 647.192C741.855 706.59 714.493 756.487 695.183 786.485L692.856 1046.44L697.11 1047.37C845.971 1080.21 972.674 937.06 921.722 793.864L787.532 403.697C769.073 331.826 715.909 274.59 648.752 252.315C636.73 248.272 624.333 245.428 611.749 243.831C603.29 242.7 594.765 242.119 586.23 242.09C502.229 242.09 427.884 297.246 396.624 373.615C393.815 380.531 390.966 387.236 388.116 393.94L295.141 673.413C272.046 733.533 262.732 836.038 356.345 873.248Z" fill="black"/>
<path d="M909.146 1042.28C909.146 1042.28 895.22 981.996 908.076 953.854L914.932 938.867L754.635 1006.26L909.146 1042.28Z" fill="black"/>
<path d="M959.243 1515C959.225 1514.89 959.225 1514.77 959.243 1514.66H216.153C216.153 1514.66 216.153 1514.87 216.153 1515H2V1514.4L89.0917 1226.14L107.012 1166.67C124.039 1095.18 194.444 1042.04 268.255 1029.42L440.608 988.262C452.078 985.507 462.287 978.98 469.592 969.734C476.894 960.489 480.869 949.06 480.877 937.286V889.625H694.561V937.286C694.576 949.077 698.569 960.519 705.898 969.766C713.227 979.017 723.464 985.531 734.959 988.262L907.354 1029.51C981.122 1042.25 1051.57 1095.26 1068.6 1166.76L1173.4 1515H959.243Z" fill="#276EF1"/>
<path d="M953.913 1515H787.526L256.008 983.184H422.27L953.913 1515Z" fill="#F6F6F6"/>
<path d="M668.505 513.092C658.219 513.107 648.063 515.379 638.773 519.744C629.484 524.112 621.286 530.462 614.778 538.336L610.874 543.046C605.466 549.583 602.509 557.767 602.507 566.212C602.507 568.339 601.651 570.38 600.13 571.882C598.608 573.386 596.546 574.231 594.396 574.231H571.222C569.101 574.186 567.081 573.322 565.597 571.823C564.115 570.323 563.284 568.309 563.284 566.212C563.22 557.742 560.186 549.553 554.702 543.046L550.84 538.38C544.337 530.447 536.132 524.048 526.815 519.643C517.501 515.241 507.308 512.944 496.983 512.922H411.887C411.749 512.922 411.619 512.976 411.523 513.072C411.426 513.166 411.372 513.296 411.372 513.432V588.105C411.384 607.994 419.382 627.063 433.609 641.121C447.836 655.18 467.128 663.078 487.242 663.078C504.083 663.073 520.443 657.526 533.737 647.306C547.035 637.088 556.509 622.781 560.665 606.647C561.959 601.225 564.966 596.35 569.249 592.731C573.017 589.673 577.74 588.001 582.615 588.001C587.491 588.001 592.213 589.673 595.984 592.731C600.27 596.365 603.276 601.255 604.566 606.689C608.65 622.495 617.834 636.552 630.729 646.727C643.624 656.903 659.523 662.642 676.016 663.078C719.185 664.351 754.16 628.456 754.16 585.773V513.727C754.16 513.594 754.105 513.464 754.009 513.368C753.913 513.271 753.782 513.22 753.644 513.22L668.505 513.092Z" fill="black"/>
<path d="M607.281 727.239C603.893 725.291 599.93 724.41 595.972 724.727C592.014 725.043 588.265 726.54 585.274 728.997C582.282 726.54 578.536 725.043 574.576 724.727C570.618 724.41 566.655 725.291 563.266 727.239L529.745 746.692L535.947 751.724C549.644 762.848 567.133 768.971 585.232 768.981C603.33 768.971 620.82 762.848 634.517 751.724L640.719 746.692L607.281 727.239Z" fill="#99644D"/>
<path d="M2095.17 1079.21H1789.37L1789.41 928.463L1789.37 672.961H2095.17V1079.21Z" fill="#FFAFA1"/>
<path d="M1198.77 1514L1257.99 1258.73C1286.45 1157.31 1345.34 1075.22 1442.61 1051.38L1673.76 994.59C1740.95 978.092 1788.54 983.011 1788.37 909.761V900.939H1829.27C1834.49 900.939 1839.67 901.858 1844.57 903.655C1850.41 905.763 1855.77 909.008 1860.34 913.198L1938.94 985.134L2024.93 912.137C2029.2 908.476 2034.09 905.603 2039.37 903.655C2044.27 901.875 2049.45 900.957 2054.67 900.939H2096.59V909.761C2096.59 982.928 2143.97 977.964 2211.2 994.59L2442.34 1051.38C2539.63 1075.26 2617.29 1152.67 2645.77 1254.09L2688.65 1514H1198.77Z" fill="black"/>
<path d="M2132.23 532.182L2124.76 687.733C2150.51 682.003 2174.92 651.71 2182.17 626.136L2197.58 570.943C2199.43 562.778 2199.06 554.262 2196.5 546.289C2193.96 538.32 2189.32 531.192 2183.08 525.652C2179.33 522.666 2175.04 520.462 2170.46 519.172C2165.87 517.879 2161.06 517.53 2156.33 518.138C2151.59 518.746 2147.03 520.302 2142.89 522.715C2138.77 525.125 2135.17 528.346 2132.28 532.182H2132.23Z" fill="#FFAFA1"/>
<path d="M1754.51 532.182L1762.24 687.733C1735.62 682.003 1710.39 651.71 1702.91 626.136L1686.96 570.943C1685.07 562.766 1685.48 554.242 1688.14 546.272C1690.81 538.3 1695.62 531.177 1702.09 525.652C1705.95 522.666 1710.39 520.462 1715.14 519.172C1719.89 517.879 1724.86 517.53 1729.75 518.138C1734.65 518.746 1739.36 520.302 1743.63 522.715C1747.9 525.125 1751.62 528.346 1754.59 532.182H1754.51Z" fill="#FFAFA1"/>
<path d="M2169.74 520.817L2162.84 556.604C2161.6 563.064 2159.68 570.928 2157.29 579.767C2136.28 657.462 2077.01 812.51 2077.01 812.51C2065.89 839.002 2047.17 861.624 2023.19 877.534C1999.22 893.444 1971.07 901.934 1942.27 901.934C1913.47 901.934 1885.32 893.444 1861.35 877.534C1837.37 861.624 1818.65 839.002 1807.53 812.51C1807.53 812.51 1748.25 657.42 1727.25 579.767C1724.86 570.928 1722.99 563.106 1721.71 556.604L1714.8 520.945C1687.53 380.263 1791.85 246.339 1935.32 242.09H1942.27H1949.22C2092.61 246.339 2197.02 380.263 2169.74 520.817Z" fill="#FFAFA1"/>
<path d="M2174.06 467.956C2170.48 348.431 2077.3 245.692 1954.94 242.09H1948.21H1942.33H1936.49H1929.71C1807.1 245.692 1714.14 348.431 1710.52 467.956C1709.97 491.23 1712.85 514.463 1719.04 536.915L1735.11 596.633H1762.48L1754.97 579.679C1737.27 539.436 1736.31 493.857 1752.29 452.908C1758.13 437.529 1761.91 421.457 1763.54 405.098L1765.33 389.077C1767.93 379.128 1772.96 369.969 1779.97 362.41C1786.98 354.854 1795.76 349.13 1805.52 345.749C1815.28 342.366 1825.73 341.431 1835.95 343.021C1846.16 344.614 1855.82 348.684 1864.08 354.874C1886.53 371.759 1913.91 380.893 1942.05 380.893C1970.2 380.893 1997.57 371.759 2020.02 354.874C2030.85 346.633 2044.11 342.165 2057.74 342.16C2071.7 342.118 2085.29 346.697 2096.34 355.177C2107.4 363.656 2115.31 375.553 2118.82 388.994L2120.57 405.015C2122.22 421.37 2126.02 437.441 2131.86 452.824C2147.82 493.776 2146.86 539.347 2129.17 579.595L2121.68 596.549H2149.03L2165.11 536.828C2171.42 514.421 2174.43 491.223 2174.06 467.956Z" fill="#7C4F40"/>
<path d="M2149.72 593.906L2099.9 782.051C2090.17 816.571 2069.51 846.954 2041.05 868.59C2012.6 890.226 1977.91 901.932 1942.24 901.932C1906.57 901.932 1871.88 890.226 1843.42 868.59C1814.97 846.954 1794.31 816.571 1784.58 782.051L1733.71 591.418L1762.08 595.399L1799.06 679.48C1811.41 714.171 1856.88 711.679 1880 699.082L1901.36 687.389C1913.86 680.579 1927.85 677.012 1942.07 677.012C1956.28 677.012 1970.27 680.579 1982.77 687.389L2004.14 699.082C2027.25 711.679 2072.72 714.171 2085.07 679.48L2121.86 595.897L2149.72 593.906Z" fill="#7C4F40"/>
<path d="M2103.7 481.317L2082.16 478.362L2080.37 477.976L2065.68 475.578C2052.48 473.404 2039.06 472.958 2025.75 474.251C2015.03 475.327 2004.76 479.168 1995.94 485.402C1987.13 491.636 1980.06 500.051 1975.43 509.836C1974.07 512.657 1971.79 514.92 1968.96 516.232C1966.13 517.544 1962.94 517.828 1959.93 517.03C1950.01 514.275 1939.53 514.275 1929.62 517.03C1926.6 517.828 1923.41 517.544 1920.58 516.232C1917.76 514.92 1915.47 512.657 1914.12 509.836C1909.48 500.051 1902.42 491.636 1893.6 485.402C1884.79 479.168 1874.52 475.327 1863.8 474.251C1850.49 472.958 1837.06 473.404 1823.86 475.578L1809.18 477.976L1807.39 478.362L1785.76 481.273C1778.04 482.198 1770.99 486.155 1766.16 492.283C1761.32 498.414 1759.1 506.216 1759.96 513.989C1760.23 516.168 1760.84 518.29 1761.75 520.285C1766.28 529.7 1770.25 539.381 1773.63 549.274C1775.37 554.493 1777.57 559.553 1780.18 564.391C1785.34 574.052 1792.27 582.643 1800.62 589.699C1808.98 597.112 1818.86 602.6 1829.55 605.781C1840.24 608.96 1851.49 609.755 1862.52 608.111C1876.45 606.01 1889.4 599.641 1899.6 589.871C1909.8 580.102 1916.76 567.405 1919.53 553.513C1920.08 550.428 1920.43 547.309 1920.59 544.18C1920.7 541.2 1921.77 538.339 1923.64 536.023C1925.5 533.708 1928.06 532.061 1930.94 531.332C1939.96 529.106 1949.38 529.106 1958.4 531.332C1961.27 532.061 1963.83 533.708 1965.69 536.023C1967.56 538.339 1968.63 541.2 1968.74 544.18C1968.9 547.309 1969.26 550.428 1969.81 553.513C1972.58 567.397 1979.54 580.084 1989.74 589.847C1999.95 599.607 2012.89 605.971 2026.81 608.069C2037.85 609.733 2049.12 608.95 2059.83 605.777C2070.53 602.603 2080.42 597.117 2088.8 589.699C2097.15 582.684 2104.1 574.138 2109.28 564.519C2111.89 559.681 2114.09 554.624 2115.83 549.404C2119.21 539.509 2123.18 529.83 2127.72 520.413C2128.63 518.418 2129.22 516.296 2129.49 514.117C2130.38 506.329 2128.16 498.505 2123.33 492.357C2118.5 486.209 2111.44 482.24 2103.7 481.317ZM1908.97 551.16C1906.67 562.685 1900.9 573.22 1892.43 581.328C1883.97 589.435 1873.23 594.722 1861.67 596.465C1852.52 597.807 1843.19 597.135 1834.33 594.495C1825.46 591.856 1817.27 587.311 1810.33 581.178C1803.38 575.357 1797.6 568.266 1793.29 560.279C1789.05 552.255 1786.17 543.569 1784.78 534.587C1784.32 531.842 1784.15 529.06 1784.27 526.28C1784.69 517.126 1788.22 508.395 1794.28 501.543C1800.33 494.694 1808.53 490.139 1817.52 488.639L1829.7 486.67C1840.66 484.86 1851.8 484.486 1862.86 485.557C1870.11 486.263 1877.13 488.506 1883.45 492.138C1889.78 495.77 1895.27 500.706 1899.56 506.625C1902.84 511.249 1905.12 516.515 1906.24 522.082C1907.18 526.366 1908.24 532.489 1909.05 537.155C1909.84 541.794 1909.81 546.533 1908.97 551.16ZM2105.36 526.366C2105.48 529.143 2105.31 531.928 2104.85 534.673C2103.46 543.655 2100.58 552.339 2096.34 560.365C2092.03 568.353 2086.25 575.443 2079.3 581.261C2072.36 587.397 2064.17 591.942 2055.3 594.581C2046.44 597.221 2037.11 597.89 2027.96 596.549C2016.4 594.805 2005.66 589.522 1997.2 581.414C1988.73 573.306 1982.96 562.771 1980.66 551.243C1979.85 546.612 1979.85 541.873 1980.66 537.241C1981.43 532.573 1982.54 526.366 1983.47 522.168C1984.6 516.601 1986.88 511.335 1990.16 506.709C1994.45 500.812 1999.94 495.895 2006.26 492.278C2012.57 488.664 2019.58 486.431 2026.81 485.727C2037.87 484.658 2049.02 485.032 2059.98 486.839L2072.15 488.809C2081.14 490.309 2089.35 494.866 2095.4 501.716C2101.45 508.565 2104.98 517.296 2105.4 526.45L2105.36 526.366Z" fill="white"/>
<path d="M2410.83 995.494L1921.38 1487.48L1918.65 1490.21L1919.46 1490.38H1753.15L1752.38 1490.21L1754.72 1487.83L1755.06 1487.48L2244.59 995.494H2410.83Z" fill="#F6F6F6"/>
<path d="M2499.14 1506.54C2496.5 1499.26 2493.81 1492.02 2490.93 1484.87C2446.14 1374.14 2368.58 1279.58 2268.51 1213.74C2168.43 1147.9 2050.6 1113.9 1930.65 1116.25C1810.69 1118.6 1694.3 1157.2 1596.91 1226.9C1499.52 1296.61 1425.75 1394.14 1385.4 1506.54C1384.42 1509.37 1383.4 1512.21 1382.46 1515H1491.08C1492.31 1512.16 1493.55 1509.33 1494.82 1506.54C1531.92 1422.99 1591.9 1351.52 1667.91 1300.29C1743.92 1249.05 1832.89 1220.13 1924.64 1216.82C2016.39 1213.52 2107.23 1235.96 2186.76 1281.59C2266.29 1327.21 2331.32 1394.18 2374.4 1474.84C2379.98 1485.16 2385.16 1495.74 2389.89 1506.54C2391.17 1509.37 2392.41 1512.21 2393.59 1515H2502.07L2499.14 1506.54Z" fill="#CBCBCB"/>
<path d="M1587.15 1461.16C1560.77 1470.48 1532.73 1475.59 1506.82 1487.08C1506.05 1487.42 1489.75 1506.87 1479.25 1511.21C1475.37 1512.68 1471.43 1513.94 1467.42 1515H1310.61L1310.86 1510.02C1311.06 1507.95 1311.06 1505.87 1310.86 1503.8L1308.73 1483.8C1308.4 1481.12 1308.4 1478.4 1308.73 1475.71C1309.25 1470.8 1310.85 1466.07 1313.41 1461.84C1315.97 1457.61 1319.43 1453.99 1323.54 1451.24H1323.8L1331.65 1445.84C1341.92 1438.7 1350.21 1429.1 1355.77 1417.91L1363.41 1402.34C1365.22 1397.84 1367.97 1393.79 1371.49 1390.44C1375 1387.1 1379.18 1384.53 1383.77 1382.93H1384.41L1386.84 1382.25L1397.25 1379.27C1407.58 1376.25 1416.89 1370.51 1424.23 1362.67L1430.55 1356.03C1434.15 1352.14 1438.62 1349.15 1443.59 1347.29C1448.57 1345.43 1453.91 1344.75 1459.19 1345.3C1461.99 1345.61 1464.74 1346.26 1467.38 1347.26C1470.01 1348.24 1472.5 1349.54 1474.81 1351.13L1510.36 1369.56C1520.42 1374.87 1529.17 1382.35 1535.97 1391.44L1587.15 1461.16Z" fill="#FFAFA1"/>
<path d="M2605.38 1513.13L2604.88 1515H2374.16L2371.34 1514.07C2360.62 1510.37 2337.85 1489.06 2326.98 1485.71L2376.55 1420.89C2383.43 1411.83 2392.23 1404.37 2402.37 1399.07L2438.18 1380.69C2440.52 1379.11 2443.03 1377.81 2445.7 1376.83C2452.06 1374.46 2459.01 1374.02 2465.62 1375.58C2472.23 1377.13 2478.23 1380.62 2482.81 1385.58L2489.17 1392.2C2496.6 1399.89 2505.94 1405.48 2516.28 1408.41L2526.76 1411.38L2529.22 1412.06H2529.87C2534.48 1413.67 2538.67 1416.23 2542.2 1419.56C2545.75 1422.9 2548.51 1426.94 2550.33 1431.42L2558.08 1446.96C2563.63 1458.13 2572.01 1467.71 2582.37 1474.8L2590.24 1480.19H2590.48C2594.63 1482.94 2598.1 1486.55 2600.67 1490.77C2603.23 1494.99 2604.84 1499.71 2605.38 1504.6C2605.75 1507.43 2605.75 1510.3 2605.38 1513.13Z" fill="#FFAFA1"/>
<path d="M2689 1515L1199 1514.72L1291.44 1512C1307.35 1511.52 1323.23 1510.64 1339.08 1509.37C1370.88 1506.83 1402.52 1502.67 1433.87 1496.88C1446.78 1494.53 1459.67 1491.83 1472.53 1488.78C1511.28 1479.97 1549.42 1468.76 1586.73 1455.21L1587.35 1454.97C1599.98 1450.38 1612.54 1445.51 1625.01 1440.38C1632.49 1437.32 1639.93 1434.17 1647.35 1430.9L1649.08 1430.16C1671.39 1420.38 1693.95 1411.71 1716.75 1404.14L1720.22 1403.01L1725.49 1401.27C1729.08 1400.09 1732.7 1398.95 1736.29 1397.9C1747.28 1394.5 1758.42 1391.36 1769.71 1388.5C1890.67 1357.27 2017.59 1355.88 2139.23 1384.44C2165.28 1390.55 2191.01 1397.97 2216.3 1406.7C2227.03 1410.37 2237.73 1414.32 2248.39 1418.53C2252.18 1419.99 2255.97 1421.49 2259.74 1423.07L2299.62 1439.28C2316.91 1446.34 2334.33 1452.9 2351.88 1458.98C2364.61 1463.36 2377.39 1467.41 2390.21 1471.14C2413.1 1477.98 2436.15 1483.94 2459.4 1489.02C2469.86 1491.31 2480.38 1493.42 2490.89 1495.34C2514.97 1499.77 2539.14 1503.25 2563.43 1505.76C2575.45 1507.02 2587.54 1508.03 2599.6 1508.84H2603.03L2689 1515Z" fill="white"/>
<path d="M1971.38 726.666C1966.75 725.112 1961.89 724.455 1957.03 724.725C1948 725.176 1939.01 725.176 1929.97 724.725C1925.11 724.455 1920.25 725.112 1915.62 726.666L1873.22 741.677L1881.08 745.599C1900.7 754.778 1922 759.394 1943.5 759.126C1965 759.394 1986.3 754.778 2005.92 745.599L2013.79 741.677L1971.38 726.666Z" fill="#FFAFA1"/>
</svg>
